<svg width="97" height="96" viewBox="0 0 97 96" fill="none" xmlns="http://www.w3.org/2000/svg">
<path fill-rule="evenodd" clip-rule="evenodd" d="M56.9883 10.9008C55.2374 7.86818 52.0016 6 48.4998 6C44.998 6 41.7622 7.86818 40.0113 10.9008L1.81317 77.0619C0.0622762 80.0946 0.0622762 83.8309 1.81317 86.8636C3.56407 89.8962 6.79985 91.7644 10.3016 91.7644H86.6979C90.1997 91.7644 93.4355 89.8962 95.1864 86.8636C96.9373 83.8309 96.9373 80.0946 95.1864 77.0619L56.9883 10.9008ZM53.3204 56.6619C53.3204 59.271 51.1917 61.3996 48.5826 61.3996C45.9734 61.3996 43.8447 59.271 43.8447 56.6619V40.1421C43.8447 37.533 45.9734 35.4043 48.5826 35.4043C51.1917 35.4043 53.3204 37.533 53.3204 40.1421V56.6619ZM48.5826 74.2849C45.966 74.2849 43.8447 72.1637 43.8447 69.5471C43.8447 66.9305 45.966 64.8092 48.5826 64.8092C51.1992 64.8092 53.3204 66.9305 53.3204 69.5471C53.3204 72.1636 51.1992 74.2849 48.5826 74.2849Z" fill="#D8565B"/>
</svg>
